<?xml version="1.0" standalone="no"?>
<!DOCTYPE svg PUBLIC "-//W3C//DTD SVG 20010904//EN"
 "http://www.w3.org/TR/2001/REC-SVG-20010904/DTD/svg10.dtd">
<svg version="1.0" xmlns="http://www.w3.org/2000/svg"
 width="1031.000000pt" height="1269.000000pt" viewBox="0 0 1031.000000 1269.000000"
 preserveAspectRatio="xMidYMid meet">

<g transform="translate(0.000000,1269.000000) scale(0.100000,-0.100000)"
fill="#000000" stroke="none">
<path d="M4812 11812 c-40 -15 -74 -34 -77 -43 -3 -9 -23 -22 -45 -29 -32 -10
-40 -18 -40 -37 0 -25 -17 -31 -26 -9 -4 11 -12 10 -41 -7 -19 -12 -49 -35
-66 -51 -18 -16 -24 -23 -14 -16 26 19 21 2 -13 -40 -16 -21 -30 -49 -30 -63
0 -14 -7 -27 -14 -30 -45 -18 -38 -198 15 -412 6 -22 15 -60 20 -84 5 -25 18
-54 29 -66 25 -26 36 -110 19 -142 -10 -19 -10 -26 0 -36 10 -9 12 -9 11 3 -4
26 0 40 10 40 6 0 10 -4 10 -10 0 -5 10 -33 23 -62 13 -29 30 -72 37 -95 14
-45 46 -61 46 -23 0 22 -12 27 -19 8 -3 -7 -6 -4 -6 7 -1 11 -8 31 -17 43 -8
12 -13 22 -9 22 3 0 -4 18 -15 40 -35 68 -51 129 -55 203 -2 40 -7 80 -11 91
-5 14 -3 17 11 15 11 -3 25 -26 39 -63 12 -32 31 -65 41 -72 29 -22 126 -17
188 8 l54 22 16 80 c26 120 47 126 106 26 23 -38 46 -72 52 -76 6 -3 43 -6 82
-5 52 1 81 7 111 24 43 24 53 45 55 115 1 59 14 81 45 75 18 -4 30 -18 46 -56
22 -53 45 -190 35 -206 -3 -5 -1 -20 4 -34 8 -20 7 -24 -7 -23 -21 1 -38 -70
-21 -91 9 -11 7 -19 -12 -39 -23 -24 -23 -24 -31 -4 -10 27 -48 28 -41 0 3
-11 9 -17 14 -14 5 3 6 -1 3 -9 -3 -8 -13 -14 -22 -13 -12 1 -16 -6 -14 -24 2
-18 0 -21 -6 -11 -7 9 -12 10 -16 2 -14 -23 -28 -11 -22 19 3 19 1 30 -5 30
-8 0 -8 4 0 14 19 22 -7 31 -30 10 -15 -13 -19 -14 -19 -3 -1 10 -5 8 -15 -5
-13 -17 -15 -17 -15 -3 0 20 -29 37 -63 37 -14 0 -30 7 -37 15 -7 8 -16 12
-21 9 -5 -3 -9 -1 -9 3 0 8 -46 10 -60 3 -3 -1 -12 -2 -21 -1 -18 2 -64 -55
-52 -62 5 -3 33 -2 63 0 117 11 185 9 185 -7 0 -12 -15 -15 -77 -15 -42 1 -74
-3 -72 -7 3 -4 -8 -5 -24 -2 -18 4 -41 0 -59 -10 -17 -8 -33 -12 -37 -9 -3 4
-6 1 -6 -5 0 -7 -7 -12 -15 -12 -9 0 -15 9 -15 25 0 20 -5 25 -24 25 -14 0
-28 -4 -31 -10 -3 -5 -1 -10 4 -10 6 0 11 -7 11 -15 0 -20 -19 -19 -27 1 -11
29 -21 -6 -12 -44 4 -20 6 -40 3 -44 -7 -11 -34 -10 -34 2 0 6 -7 10 -15 10
-8 0 -15 7 -15 15 0 8 -4 15 -10 15 -5 0 -10 -6 -10 -14 0 -8 5 -18 10 -21 6
-3 10 -26 10 -51 0 -29 -4 -43 -10 -39 -7 4 -9 -3 -5 -22 17 -79 29 -115 42
-120 7 -3 13 -11 13 -19 0 -25 83 -104 110 -105 17 -1 19 -3 8 -6 -25 -6 -22
-21 5 -25 17 -2 22 -10 22 -33 0 -43 27 -57 138 -72 34 -5 41 -1 73 33 21 24
33 46 30 57 -2 10 1 17 9 17 8 0 15 -10 17 -22 2 -12 9 -23 17 -26 9 -3 11 1
7 16 -4 11 -2 23 4 27 5 3 11 18 11 33 1 17 3 21 6 10 6 -22 29 -23 37 -2 5
13 9 14 20 4 12 -9 15 -5 18 27 3 33 6 38 26 35 15 -2 22 2 22 13 0 23 31 87
38 80 11 -10 53 129 57 189 4 49 2 56 -9 47 -12 -10 -13 -8 -9 8 3 11 11 26
19 32 22 18 17 26 -15 24 -21 -1 -28 2 -24 12 6 16 20 17 25 2 2 -5 10 -8 19
-4 16 6 26 114 20 215 -4 78 -4 100 -2 310 1 101 -18 249 -39 306 -10 26 -59
82 -140 161 -19 18 -53 38 -75 44 -22 6 -56 20 -76 30 -20 10 -44 19 -52 19
-8 0 -17 7 -21 15 -3 8 -14 15 -24 15 -11 0 -25 7 -32 15 -19 23 -85 17 -168
-13z m-282 -227 c-7 -8 -17 -15 -22 -15 -6 0 -5 7 2 15 7 8 17 15 22 15 6 0 5
-7 -2 -15z m584 -123 c32 -19 51 -23 95 -20 55 3 56 2 73 -32 9 -19 17 -49 18
-67 0 -33 15 -76 35 -103 6 -8 16 -27 22 -41 13 -31 17 -31 -100 3 -65 18 -71
18 -150 3 -45 -10 -86 -20 -92 -25 -27 -20 -116 -40 -179 -40 -86 0 -179 -21
-246 -55 -27 -14 -52 -25 -55 -25 -3 0 -5 25 -5 55 0 34 -4 55 -11 55 -14 0
-3 102 16 145 29 63 48 75 117 75 127 1 363 54 374 85 7 18 46 12 88 -13z
m156 -357 c0 -8 -4 -15 -10 -15 -5 0 -10 7 -10 15 0 8 5 15 10 15 6 0 10 -7
10 -15z m0 -47 c-1 -35 -15 -58 -41 -67 -16 -6 -27 -6 -24 -1 3 5 -3 14 -12
20 -14 9 -14 10 -2 7 9 -3 26 7 40 24 25 31 39 37 39 17z m-623 -115 c18 -8
30 -20 26 -26 -4 -6 3 -8 18 -4 13 3 33 2 43 -2 19 -7 19 -8 1 -15 -10 -4 -38
-4 -61 0 -35 5 -45 12 -58 38 -8 18 -17 52 -20 77 l-5 44 12 -48 c10 -39 19
-51 44 -64z m207 13 c-3 -14 -11 -26 -16 -26 -5 0 -7 6 -4 13 3 6 9 20 12 30
10 27 16 13 8 -17z m-164 4 c0 -5 -7 -10 -15 -10 -8 0 -15 5 -15 10 0 6 7 10
15 10 8 0 15 -4 15 -10z m740 -159 c0 -23 -16 -36 -25 -21 -9 14 1 40 15 40 5
0 10 -9 10 -19z m-245 -159 c14 -15 23 -33 20 -40 -3 -8 -5 -20 -5 -28 0 -8
-6 -14 -14 -14 -8 0 -17 -11 -20 -25 -4 -14 -11 -25 -17 -25 -6 0 -7 -5 -4
-10 3 -6 4 -18 1 -28 -7 -20 -69 -23 -89 -3 -16 16 -40 14 -34 -3 4 -9 -4 -16
-21 -19 -15 -3 -38 -8 -52 -12 -18 -4 -33 1 -54 19 -25 23 -27 28 -15 42 12
15 11 16 -8 10 -17 -5 -23 -2 -29 16 -3 13 -11 26 -17 29 -6 4 -6 17 0 35 11
33 48 47 178 67 141 21 151 20 180 -11z m195 2 c0 -8 -4 -12 -10 -9 -5 3 -10
13 -10 21 0 8 5 12 10 9 6 -3 10 -13 10 -21z"/>
<path d="M5005 10603 c-102 -22 -114 -34 -68 -67 18 -14 28 -16 31 -8 2 7 15
12 28 12 32 0 104 37 104 53 0 13 -55 18 -95 10z"/>
<path d="M5477 10923 c-4 -3 -7 -11 -7 -17 0 -6 5 -5 12 2 6 6 9 14 7 17 -3 3
-9 2 -12 -2z"/>
<path d="M5006 10827 c-17 -13 -17 -14 -2 -20 17 -7 56 11 56 25 0 13 -35 9
-54 -5z"/>
<path d="M4875 10811 c-9 -15 14 -24 43 -16 20 5 23 8 11 16 -18 11 -46 12
-54 0z"/>
<path d="M5350 10761 c0 -6 4 -13 10 -16 6 -3 7 1 4 9 -7 18 -14 21 -14 7z"/>
<path d="M4860 10701 c0 -6 5 -13 10 -16 6 -3 10 1 10 9 0 9 -4 16 -10 16 -5
0 -10 -4 -10 -9z"/>
<path d="M5465 10413 c15 -71 8 -109 -31 -179 -21 -38 -40 -71 -43 -74 -4 -3
-18 -21 -33 -40 -44 -58 -80 -94 -138 -135 -30 -21 -56 -42 -58 -47 -2 -4 -17
-8 -33 -8 -16 0 -29 -4 -29 -10 0 -26 -97 -5 -170 37 -14 8 -33 17 -42 20 -10
3 -18 11 -18 18 0 8 -9 17 -20 20 -11 3 -20 11 -20 18 0 6 -11 22 -24 36 -14
15 -39 53 -55 86 -17 33 -31 54 -31 47 0 -20 58 -149 78 -174 68 -85 84 -98
121 -98 20 0 43 -5 51 -11 11 -7 -1 -8 -41 -3 -61 6 -50 14 -126 -83 -18 -23
-71 -32 -87 -15 -4 4 -13 7 -19 7 -20 0 -59 222 -50 284 3 20 15 50 26 66 14
20 5 14 -26 -17 -26 -27 -53 -48 -62 -48 -9 0 -15 -10 -16 -22 -1 -18 -2 -19
-6 -5 -2 9 -9 15 -14 11 -5 -3 -6 -10 -3 -16 4 -6 1 -9 -7 -6 -19 7 -84 -17
-116 -42 -14 -11 -30 -17 -35 -14 -5 3 -17 -1 -26 -9 -9 -9 -29 -19 -45 -22
-15 -4 -35 -17 -43 -29 -11 -15 -18 -17 -21 -8 -3 9 -14 3 -34 -18 -17 -17
-34 -28 -39 -25 -16 10 -109 -45 -103 -61 6 -16 -13 -19 -22 -4 -5 8 -11 7
-21 -1 -7 -6 -11 -15 -9 -20 7 -10 -30 -31 -39 -21 -4 3 -4 -1 0 -11 5 -13 2
-16 -10 -11 -19 7 -22 -16 -4 -34 8 -8 9 -12 1 -12 -6 0 -13 6 -16 13 -7 20
-37 -12 -37 -40 0 -13 -4 -22 -9 -18 -14 8 -66 -106 -111 -244 -54 -165 -82
-309 -78 -398 2 -39 0 -66 -5 -60 -4 7 -7 -6 -7 -28 1 -52 -55 -553 -75 -671
-18 -110 -19 -181 -3 -186 9 -3 8 -9 -5 -22 -24 -24 -24 -103 1 -109 16 -4 16
-5 0 -6 -19 -1 -20 -2 -23 -148 -1 -46 1 -83 4 -83 3 0 5 -36 3 -79 -3 -65 2
-96 26 -178 38 -124 41 -140 57 -243 16 -104 68 -363 89 -445 9 -33 23 -64 32
-70 46 -28 64 -49 64 -71 0 -13 5 -24 10 -24 6 0 10 6 10 14 0 8 3 21 6 30 4
10 1 16 -8 16 -10 0 -12 13 -10 48 5 75 10 92 32 92 11 0 20 6 20 14 0 7 13
19 29 25 33 14 117 11 114 -4 -4 -19 41 -55 68 -55 44 0 77 -17 112 -56 38
-44 97 -155 97 -185 0 -25 36 -111 68 -163 59 -95 58 -138 -3 -155 -24 -6 -34
-4 -49 13 -36 41 -82 122 -99 176 -15 47 -65 120 -82 120 -3 0 -3 -16 1 -35 4
-22 2 -41 -6 -50 -6 -8 -8 -20 -4 -26 5 -9 2 -10 -10 -6 -9 4 -15 3 -12 -1 2
-4 -2 -16 -9 -26 -12 -15 -22 -17 -59 -12 -33 5 -46 4 -46 -5 0 -6 8 -9 20 -6
11 3 18 1 15 -3 -3 -5 0 -10 7 -12 9 -3 9 -6 0 -12 -7 -4 -12 -2 -12 3 0 6
-12 11 -27 11 -22 0 -25 -2 -13 -10 12 -8 9 -10 -12 -10 -16 0 -28 -4 -28 -9
0 -11 87 -23 126 -17 82 13 114 15 114 8 0 -5 -27 -12 -60 -15 -33 -4 -81 -12
-107 -18 l-46 -12 27 -24 c25 -21 25 -23 7 -23 -12 0 -21 -4 -21 -9 0 -5 26
-9 58 -8 67 2 116 -9 106 -24 -3 -6 -17 -9 -29 -7 -18 4 -22 1 -17 -11 5 -14
3 -14 -11 -3 -8 7 -28 12 -44 10 l-28 -4 37 -17 c21 -9 47 -17 60 -17 21 0
108 -37 108 -46 0 -2 -14 -3 -32 -2 -18 1 -33 -3 -36 -10 -7 -23 -60 -12 -136
30 -14 7 -21 6 -27 -4 -12 -19 -11 -28 4 -25 7 1 11 -6 9 -17 -3 -17 -2 -18
13 -6 14 11 18 11 33 -3 11 -11 12 -17 4 -17 -10 0 -10 -5 -2 -20 6 -11 18
-20 28 -20 9 0 46 -12 82 -25 l65 -26 -52 6 c-29 3 -80 14 -114 25 -34 11 -64
18 -67 15 -7 -6 -7 -6 48 -31 44 -21 95 -37 155 -49 l30 -7 -29 -15 c-22 -11
-46 -14 -91 -10 -62 6 -62 6 -57 -19 6 -30 19 -39 37 -24 11 9 17 6 30 -14 19
-29 13 -61 -9 -53 -8 3 -19 0 -25 -7 -13 -16 15 -106 32 -106 7 0 6 -4 -2 -9
-8 -5 -21 -6 -30 -3 -13 5 -14 4 -1 -10 8 -8 21 -13 27 -11 7 3 13 0 13 -6 0
-6 -4 -11 -10 -11 -11 0 -8 -22 8 -63 20 -48 24 -75 12 -82 -6 -4 -8 -15 -5
-25 4 -13 -1 -23 -14 -32 -12 -7 -21 -22 -22 -33 0 -19 -1 -19 -11 3 -6 12
-15 22 -19 22 -16 0 15 -55 48 -86 l34 -32 -26 -4 c-22 -5 -25 -3 -19 16 4 11
3 18 -1 14 -11 -10 -45 31 -45 54 0 10 -4 18 -10 18 -13 0 -13 -4 7 -72 10
-32 21 -58 26 -58 4 0 6 -4 3 -8 -3 -5 0 -26 6 -48 6 -21 11 -42 10 -46 -2 -9
35 -154 50 -196 7 -19 17 -31 25 -28 10 4 10 1 2 -12 -8 -13 -5 -30 15 -74 14
-31 26 -63 26 -72 0 -8 4 -17 9 -20 5 -3 12 -22 16 -43 5 -27 9 -33 16 -22 6
10 9 1 9 -28 0 -46 6 -52 24 -28 10 14 14 14 31 2 18 -14 18 -15 -9 -39 l-28
-24 34 -37 c27 -29 42 -37 69 -37 19 0 42 -6 51 -12 23 -19 31 -53 14 -67 -15
-13 -46 -5 -46 12 0 8 -3 8 -11 0 -14 -14 18 -62 42 -63 18 0 39 -19 39 -35 0
-7 -11 -18 -25 -25 -30 -16 -32 -26 -5 -33 25 -6 28 -55 4 -64 -22 -8 -14
-155 10 -182 9 -10 16 -23 16 -29 0 -7 3 -12 8 -12 4 0 16 -16 27 -36 11 -20
36 -47 57 -60 39 -25 78 -63 78 -76 0 -5 -11 -1 -25 8 -14 9 -25 12 -25 6 0
-6 -15 -8 -37 -5 -70 9 -97 -41 -72 -130 9 -33 12 -36 25 -22 9 8 30 16 47 16
129 6 142 2 83 -26 -18 -9 -43 -25 -55 -37 l-22 -20 -27 23 c-17 16 -13 8 10
-19 32 -38 36 -51 36 -95 0 -52 27 -198 42 -227 4 -8 15 -49 25 -90 10 -41 38
-129 62 -194 24 -66 42 -129 40 -140 -3 -16 -5 -14 -6 7 0 15 -5 27 -9 27 -10
0 -42 87 -42 113 0 9 -4 17 -10 17 -13 0 -13 -22 1 -56 5 -16 12 -55 14 -88 3
-34 16 -101 31 -151 14 -49 29 -103 34 -120 12 -45 29 -82 30 -65 0 13 1 13
10 0 6 -9 5 -17 -3 -22 -9 -6 -9 -8 1 -8 7 0 11 -4 8 -9 -9 -14 49 -94 97
-134 52 -42 64 -60 72 -105 5 -29 3 -31 -34 -37 -61 -10 -83 -37 -79 -98 l3
-52 41 -5 c74 -10 122 -60 65 -68 -12 -2 -38 -26 -60 -55 -66 -89 -171 -184
-291 -263 -140 -93 -179 -130 -204 -189 -17 -41 -17 -47 -3 -69 33 -50 242
-89 365 -68 155 26 310 83 375 138 45 38 90 53 211 69 144 19 181 30 205 61
11 14 28 24 37 22 15 -3 17 -19 17 -128 1 -69 0 -172 -2 -230 -4 -188 6 -195
269 -195 173 0 188 1 227 23 64 34 77 67 70 177 -9 128 -34 249 -68 326 -25
59 -27 71 -17 99 6 18 19 41 29 51 10 10 15 26 12 37 -3 12 4 33 18 51 l22 31
-38 74 c-38 74 -38 75 -32 163 4 48 16 124 27 168 26 104 44 291 37 382 -3 39
-1 118 4 175 23 256 29 434 18 513 -19 136 -22 205 -9 220 15 18 -3 39 -43 49
-32 8 -35 22 -7 31 19 6 20 15 20 136 0 117 -2 134 -24 177 -16 31 -27 75 -31
123 -8 86 -24 147 -35 130 -10 -16 -20 115 -13 167 3 23 0 77 -7 120 -16 102
-6 211 71 839 10 89 21 211 22 272 3 105 5 112 37 163 25 40 34 69 39 118 4
36 10 71 15 79 23 36 6 161 -21 161 -18 0 -26 -42 -21 -102 12 -121 -32 -305
-68 -291 -21 8 -17 51 7 90 17 28 19 39 11 58 -8 16 -8 52 -1 115 9 90 2 141
-12 90 -7 -23 -8 6 -12 180 -1 28 -4 50 -7 50 -11 0 -10 137 1 178 10 37 9 45
-6 62 -14 16 -17 31 -12 78 2 32 10 68 17 79 10 15 10 67 4 227 l-9 207 22 15
c60 38 65 112 17 227 -14 34 -32 103 -39 152 -8 50 -19 121 -26 159 -15 94 -9
228 12 252 9 11 25 44 35 74 22 66 22 65 32 56 4 -4 12 -83 19 -174 19 -268
33 -404 44 -442 6 -19 16 -73 22 -120 12 -102 16 -668 4 -726 -8 -35 -6 -44
17 -71 l26 -31 -22 -14 c-19 -13 -21 -18 -10 -31 9 -11 10 -26 3 -56 -9 -43 2
-67 14 -28 4 12 7 25 6 29 0 4 6 5 14 2 8 -4 15 -2 15 4 0 6 -6 12 -12 15 -7
2 -1 4 14 3 14 0 24 -5 20 -10 -3 -5 2 -7 11 -3 9 3 19 2 22 -4 4 -5 10 -7 15
-4 5 3 15 -4 23 -15 l14 -21 6 21 c5 21 29 29 24 8 -1 -8 10 -14 28 -15 17 -1
56 -4 87 -7 61 -6 112 7 105 27 -6 18 -37 21 -37 3 0 -9 -7 -16 -15 -16 -8 0
-15 6 -15 14 0 13 -26 27 -60 31 -33 5 -80 27 -74 36 3 5 1 9 -5 9 -5 0 -12
-6 -15 -12 -3 -7 -3 -1 0 15 7 33 -7 36 -21 5 -6 -13 -16 -22 -23 -20 -7 1
-24 3 -38 4 -28 3 -49 31 -40 54 8 20 73 18 84 -3 9 -14 10 -14 17 6 4 15 12
20 22 17 8 -3 23 -6 34 -6 12 0 19 -7 19 -19 0 -10 7 -25 17 -32 15 -13 16
-11 9 14 -7 31 1 35 20 10 13 -17 14 -17 20 5 7 26 19 27 57 8 15 -8 27 -14
27 -12 0 1 4 27 9 57 6 30 13 162 16 294 4 132 10 285 14 340 5 55 7 190 6
300 -1 174 1 205 16 241 17 36 18 65 14 280 -4 207 -9 263 -35 419 -17 99 -37
257 -46 350 -31 354 -73 618 -115 735 -12 30 -27 80 -36 110 -42 157 -165 272
-394 369 -63 26 -149 65 -192 85 -76 36 -187 79 -187 71 0 -2 -26 9 -57 24
-32 16 -69 32 -81 36 -22 6 -23 5 -12 -16 28 -51 -1 -134 -107 -306 -35 -57
-63 -107 -63 -112 0 -21 -24 -61 -37 -61 -7 0 -32 14 -55 30 -22 17 -45 30
-50 30 -9 0 -118 70 -118 76 0 2 21 23 47 46 87 79 120 118 166 196 96 162
118 240 79 275 -28 26 -35 20 -27 -20z m-1210 -502 c3 -5 1 -12 -5 -16 -5 -3
-10 1 -10 9 0 18 6 21 15 7z m905 -10 c0 -5 -9 -7 -20 -4 -11 3 -20 7 -20 9 0
2 9 4 20 4 11 0 20 -4 20 -9z m-970 -21 c0 -5 -4 -10 -10 -10 -5 0 -10 5 -10
10 0 6 5 10 10 10 6 0 10 -4 10 -10z m-289 -233 c-10 -9 -11 -8 -5 6 3 10 9
15 12 12 3 -3 0 -11 -7 -18z m290 -1308 c-9 -30 -16 -38 -23 -31 -8 8 -8 23 1
53 9 30 16 38 23 31 8 -8 8 -23 -1 -53z m200 -373 c-7 -8 -9 -25 -5 -40 7 -31
-2 -32 -33 -7 -26 22 -30 36 -9 28 8 -3 22 5 32 18 10 13 20 22 22 20 3 -3 0
-11 -7 -19z m-260 -8 c0 -2 4 -113 9 -248 6 -200 5 -250 -7 -272 -7 -16 -18
-28 -23 -28 -15 0 -11 89 5 135 19 51 19 84 1 127 -12 29 -16 165 -7 276 1 10
19 18 22 10z m206 -64 c-3 -3 -12 -4 -19 -1 -8 3 -5 6 6 6 11 1 17 -2 13 -5z
m43 -444 c0 -5 -5 -10 -11 -10 -5 0 -7 5 -4 10 3 6 8 10 11 10 2 0 4 -4 4 -10z
m47 -26 c-3 -3 -12 -4 -19 -1 -8 3 -5 6 6 6 11 1 17 -2 13 -5z m-43 -55 c-7
-13 -24 7 -24 29 0 10 4 10 16 -2 8 -9 12 -21 8 -27z m24 16 c-3 -3 -9 2 -12
12 -6 14 -5 15 5 6 7 -7 10 -15 7 -18z m-60 -13 c2 -7 -3 -12 -12 -12 -9 0
-16 7 -16 16 0 17 22 14 28 -4z m-58 -27 c0 -8 -9 -19 -19 -24 -15 -8 -20 -7
-25 6 -7 17 9 33 32 33 6 0 12 -7 12 -15z m-100 -25 c0 -5 -2 -10 -4 -10 -3 0
-8 5 -11 10 -3 6 -1 10 4 10 6 0 11 -4 11 -10z m-46 -166 c19 -18 20 -33 5
-71 -6 -15 -10 -52 -10 -80 0 -47 -12 -74 -25 -60 -3 3 -8 55 -12 116 -7 100
-6 111 10 111 9 0 24 -7 32 -16z m-264 -449 c0 -8 -4 -15 -10 -15 -5 0 -7 7
-4 15 4 8 8 15 10 15 2 0 4 -7 4 -15z m547 -57 c-3 -8 -6 -5 -6 6 -1 11 2 17
5 13 3 -3 4 -12 1 -19z m140 -44 c51 -26 88 -56 47 -40 -10 4 -43 17 -71 28
-29 12 -53 25 -53 29 0 15 21 10 77 -17z m23 16 c12 -8 11 -10 -7 -10 -13 0
-23 5 -23 10 0 13 11 13 30 0z m309 -73 c1 -5 -3 -5 -9 -2 -5 3 -10 16 -9 28
0 21 1 21 9 2 5 -11 9 -24 9 -28z m-172 27 c-3 -3 -12 -4 -19 -1 -8 3 -5 6 6
6 11 1 17 -2 13 -5z m907 -30 c3 -8 2 -12 -4 -9 -6 3 -10 10 -10 16 0 14 7 11
14 -7z m-937 0 c-3 -3 -12 -4 -19 -1 -8 3 -5 6 6 6 11 1 17 -2 13 -5z m226
-34 c3 -11 1 -23 -4 -26 -5 -3 -10 -78 -10 -167 -1 -114 -4 -150 -10 -122 -10
50 -11 158 -3 258 7 76 17 97 27 57z m747 -5 c11 -13 10 -14 -4 -9 -9 3 -16
10 -16 15 0 13 6 11 20 -6z m-1035 -30 c50 -4 53 -4 59 -20 5 -14 -2 -15 -41
-10 -26 3 -52 10 -57 15 -6 6 -21 10 -35 10 -21 0 -23 2 -11 10 8 6 24 7 35 4
11 -4 34 -7 50 -9z m132 -37 c15 -7 31 -17 34 -22 4 -5 16 -6 28 -3 14 3 21 0
21 -9 0 -8 7 -14 15 -14 10 0 15 -10 15 -34 l0 -34 -87 -6 c-49 -4 -109 -8
-135 -11 -37 -3 -48 -1 -48 10 0 10 -10 15 -29 15 -17 0 -33 5 -36 10 -4 6 40
10 124 10 76 0 132 4 136 10 3 6 2 10 -3 10 -6 0 -8 9 -5 19 4 15 -2 21 -25
26 -17 3 -36 13 -43 21 -15 18 0 18 38 2z m186 -95 c-4 -21 -1 -33 6 -33 6 0
11 -6 11 -14 0 -9 -7 -12 -18 -9 -19 4 -18 3 -12 128 l2 40 8 -40 c4 -22 5
-55 3 -72z m97 42 c0 -7 6 -16 13 -18 7 -3 5 -6 -5 -6 -10 -1 -18 3 -18 8 0 5
-3 17 -7 27 -4 12 -3 15 5 10 7 -4 12 -13 12 -21z m100 15 c0 -5 -5 -10 -11
-10 -5 0 -7 5 -4 10 3 6 8 10 11 10 2 0 4 -4 4 -10z m-40 -30 c0 -5 -2 -10 -4
-10 -3 0 -8 5 -11 10 -3 6 -1 10 4 10 6 0 11 -4 11 -10z m757 -26 c-3 -3 -12
-4 -19 -1 -8 3 -5 6 6 6 11 1 17 -2 13 -5z m-77 -34 c-19 -13 -30 -13 -30 0 0
6 10 10 23 10 18 0 19 -2 7 -10z m-1063 -30 c4 -15 14 -20 39 -20 19 0 34 -4
34 -10 0 -6 -31 -10 -72 -10 -56 0 -69 3 -60 12 17 17 15 38 -3 38 -8 0 -15
-9 -15 -20 0 -23 -7 -26 -67 -33 -49 -6 -58 7 -12 17 22 4 29 10 26 20 -6 16
15 22 86 25 31 1 40 -3 44 -19z m964 4 c-24 -7 -49 -10 -55 -6 -6 4 7 10 29
13 65 10 73 8 26 -7z m-1458 -11 c4 -2 7 -8 7 -13 0 -12 -95 -1 -140 16 -32
13 -29 13 45 8 44 -4 83 -8 88 -11z m714 -25 c-3 -7 -5 -2 -5 12 0 14 2 19 5
13 2 -7 2 -19 0 -25z m-80 5 c2 -6 -8 -13 -22 -15 -26 -5 -41 5 -31 20 7 12
49 8 53 -5z m727 0 c-5 -5 -11 -12 -15 -16 -3 -4 -12 -1 -19 8 -11 13 -9 15
15 15 16 0 24 -3 19 -7z m163 -19 c-3 -3 -12 -4 -19 -1 -8 3 -5 6 6 6 11 1 17
-2 13 -5z m-47 -14 c0 -5 -8 -10 -17 -10 -10 0 -29 -3 -43 -6 l-25 -6 25 15
c29 18 60 21 60 7z m-94 -55 c-11 -8 -37 -15 -57 -15 -21 0 -39 -5 -41 -11 -2
-6 -17 -9 -33 -7 -18 3 -24 6 -15 10 71 25 109 36 135 36 28 1 29 1 11 -13z
m240 -32 c-3 -3 -22 -9 -43 -13 -21 -5 -48 -12 -61 -15 -17 -6 -21 -4 -17 7 4
9 28 19 58 25 50 9 74 7 63 -4z m-442 -18 c-10 -8 -25 -15 -33 -15 -11 0 -9 4
5 15 10 8 25 15 33 15 11 0 9 -4 -5 -15z m-1070 -21 c18 -7 12 -24 -10 -24 -8
0 -14 7 -14 15 0 17 2 18 24 9z m1596 2 c0 -12 -192 -56 -244 -56 -20 0 -20 0
-1 13 22 15 115 35 185 40 25 2 48 4 53 5 4 1 7 0 7 -2z m-1477 -33 c-13 -2
-33 -2 -45 0 -13 2 -3 4 22 4 25 0 35 -2 23 -4z m825 -20 c-10 -2 -26 -2 -35
0 -10 3 -2 5 17 5 19 0 27 -2 18 -5z m-708 -17 c0 -2 -7 -7 -16 -10 -8 -3 -12
-2 -9 4 6 10 25 14 25 6z m1375 -48 c4 -4 -6 -10 -21 -14 -16 -4 -36 -12 -44
-19 -8 -7 -51 -16 -95 -20 -115 -9 -128 -11 -145 -18 -24 -9 -162 -28 -168
-23 -3 3 1 7 9 10 8 2 29 9 48 15 18 6 37 8 43 5 5 -3 20 1 33 10 13 9 35 16
47 16 22 0 133 23 187 39 31 9 97 8 106 -1z m-1028 -30 c-3 -8 -6 -5 -6 6 -1
11 2 17 5 13 3 -3 4 -12 1 -19z m-607 -38 c0 -5 -4 -10 -10 -10 -5 0 -10 5
-10 10 0 6 5 10 10 10 6 0 10 -4 10 -10z m1650 -29 c0 -5 -7 -14 -15 -21 -8
-7 -15 -10 -15 -7 0 3 -3 12 -6 21 -4 12 0 16 15 16 12 0 21 -4 21 -9z m-50
-19 c0 -13 -12 -22 -37 -30 -20 -6 -40 -9 -44 -7 -4 3 -51 1 -106 -5 -97 -9
-384 -20 -329 -12 17 2 30 11 33 23 4 13 9 16 17 11 21 -17 336 4 421 28 44
12 45 12 45 -8z m40 -66 c0 -7 -7 -19 -15 -26 -8 -7 -15 -20 -16 -29 0 -11 -2
-12 -6 -3 -4 10 -8 10 -20 0 -13 -10 -19 -8 -35 12 -16 20 -17 25 -5 38 12 11
19 12 38 2 19 -11 25 -10 34 4 12 20 25 21 25 2z m-120 -41 c0 -22 -4 -25 -40
-25 -33 0 -40 3 -40 19 0 12 8 21 23 24 50 10 57 8 57 -18z m-1350 -27 c-14
-5 -38 -7 -55 -6 l-30 4 35 10 c19 6 44 8 54 6 18 -5 17 -6 -4 -14z m1059 8
c10 -11 7 -17 -11 -30 -12 -9 -28 -16 -34 -16 -7 0 -14 -6 -17 -13 -3 -9 -29
-14 -78 -15 l-74 -3 27 26 c16 14 41 27 58 28 16 1 30 5 30 10 0 4 13 7 29 7
17 0 33 5 36 10 9 14 20 12 34 -4z m131 4 c0 -13 -20 -13 -40 0 -12 8 -9 10
13 10 15 0 27 -4 27 -10z m-1483 -46 c-3 -3 -12 -4 -19 -1 -8 3 -5 6 6 6 11 1
17 -2 13 -5z m1130 -30 c-3 -3 -12 -4 -19 -1 -8 3 -5 6 6 6 11 1 17 -2 13 -5z
m256 -21 c-13 -2 -33 -2 -45 0 -13 2 -3 4 22 4 25 0 35 -2 23 -4z m97 -13 c0
-5 -7 -10 -15 -10 -8 0 -15 5 -15 10 0 6 7 10 15 10 8 0 15 -4 15 -10z m-180
-50 c0 -5 -4 -10 -10 -10 -5 0 -10 5 -10 10 0 6 5 10 10 10 6 0 10 -4 10 -10z
m78 -8 c8 -6 2 -9 -18 -9 -16 0 -30 4 -30 9 0 10 31 10 48 0z m20 -56 c27 -16
9 -26 -47 -26 -33 0 -63 5 -66 10 -3 6 -22 10 -41 10 -19 0 -34 4 -34 8 0 10
172 8 188 -2z m121 -22 c2 -2 -10 -4 -27 -4 -24 0 -30 4 -26 15 5 12 10 12 27
3 12 -6 24 -12 26 -14z m-359 -54 c0 -5 -7 -7 -15 -4 -8 4 -15 8 -15 10 0 2 7
4 15 4 8 0 15 -4 15 -10z m90 0 c0 -5 -10 -10 -22 -9 -22 0 -22 1 -3 9 11 5
21 9 23 9 1 1 2 -3 2 -9z m62 -12 c-9 -9 -15 -9 -24 0 -9 9 -7 12 12 12 19 0
21 -3 12 -12z m27 -85 c10 -19 9 -22 -4 -17 -8 4 -15 15 -15 27 0 23 2 22 19
-10z m-309 -18 c0 -8 16 -62 35 -119 29 -84 40 -140 55 -282 11 -98 27 -203
35 -234 12 -45 31 -178 36 -250 1 -8 5 -4 10 10 7 21 8 19 5 -12 -5 -44 3 -80
16 -72 5 3 6 -5 2 -20 -3 -14 -2 -26 2 -26 5 0 9 -64 9 -142 0 -113 4 -152 18
-187 11 -27 21 -89 26 -167 5 -94 11 -128 24 -142 9 -10 17 -33 17 -50 0 -17
4 -33 9 -37 14 -8 9 -47 -6 -64 -10 -10 -12 -31 -6 -90 13 -126 10 -558 -4
-572 -16 -16 -29 32 -53 196 -17 115 -64 313 -105 446 -8 26 -15 56 -15 67 0
11 -7 36 -15 55 -8 20 -15 52 -15 72 0 20 -7 52 -15 72 -8 19 -15 50 -15 68 0
18 -7 38 -15 45 -18 15 -19 53 -3 80 10 15 10 22 0 32 -6 6 -12 31 -12 54 0
31 -7 51 -26 73 -24 29 -25 34 -14 62 9 22 10 50 4 102 -5 40 -9 209 -9 377 0
256 -3 315 -17 365 -33 117 -34 163 -2 238 28 64 44 84 44 52z m-907 -32 c3
-5 -15 -9 -39 -9 -24 -1 -44 2 -44 7 0 11 77 12 83 2z m1052 -93 c3 -5 1 -10
-4 -10 -6 0 -11 5 -11 10 0 6 2 10 4 10 3 0 8 -4 11 -10z m84 -36 c14 -13 -12
-13 -40 0 l-34 16 35 -6 c19 -4 37 -8 39 -10z m61 -24 c0 -5 -4 -10 -10 -10
-5 0 -10 5 -10 10 0 6 5 10 10 10 6 0 10 -4 10 -10z m50 -11 c0 -5 -4 -9 -10
-9 -5 0 -10 7 -10 16 0 8 5 12 10 9 6 -3 10 -10 10 -16z m-1205 -149 c10 -11
13 -20 7 -20 -7 0 -12 5 -12 10 0 6 -9 10 -20 10 -11 0 -20 5 -20 10 0 17 26
11 45 -10z m15 -65 c0 -8 -4 -15 -10 -15 -5 0 -10 7 -10 15 0 8 5 15 10 15 6
0 10 -7 10 -15z m33 -48 c-8 -15 -23 5 -23 31 l0 27 14 -25 c7 -14 11 -28 9
-33z m1006 -18 c9 -20 10 -34 3 -41 -6 -6 -13 1 -21 23 -13 38 -14 49 -3 49 4
0 13 -14 21 -31z m-983 -16 c15 -20 18 -33 7 -33 -5 0 -13 11 -20 25 -13 29
-6 33 13 8z m1671 -15 c-3 -7 -5 -2 -5 12 0 14 2 19 5 13 2 -7 2 -19 0 -25z
m-504 -1 c4 17 4 17 12 1 12 -29 -2 -48 -34 -48 l-30 0 17 -30 c9 -16 26 -31
36 -32 11 -2 21 -8 23 -15 5 -13 -58 -7 -89 9 -24 12 -23 55 3 97 19 31 21 32
39 16 17 -15 19 -15 23 2z m-100 -23 c18 -7 24 -24 7 -24 -5 0 -11 -8 -11 -17
-1 -17 -2 -17 -6 0 -2 9 -8 17 -13 17 -4 0 -10 9 -13 21 -4 13 -1 18 6 15 7
-3 20 -9 30 -12z m167 -114 c0 -5 -4 -10 -10 -10 -5 0 -10 5 -10 10 0 6 5 10
10 10 6 0 10 -4 10 -10z m-1223 -70 c13 0 23 -6 24 -12 0 -10 2 -10 6 0 9 24
33 13 33 -15 0 -33 -19 -65 -26 -46 -3 7 -11 10 -18 7 -7 -3 -24 6 -39 20 -14
13 -28 21 -31 18 -8 -7 -8 12 0 33 5 12 10 13 17 6 6 -6 21 -11 34 -11z m1204
-56 c12 -34 16 -61 10 -67 -15 -15 -46 -3 -47 18 -3 68 -4 70 -14 55 -8 -13
-14 -11 -37 12 -31 31 -27 40 17 42 16 1 30 5 30 11 0 22 24 -18 41 -71z
m-229 31 c3 -14 1 -25 -3 -25 -5 0 -9 11 -9 25 0 14 2 25 4 25 2 0 6 -11 8
-25z m-789 -32 c29 -15 29 -15 22 -35 -4 -9 -23 -13 -63 -12 -54 1 -57 2 -54
24 6 51 29 57 95 23z m1464 -95 c-3 -7 -5 -2 -5 12 0 14 2 19 5 13 2 -7 2 -19
0 -25z m-432 -49 c0 -38 -1 -39 -30 -37 -28 3 -75 40 -75 60 0 5 9 6 20 3 11
-3 20 -3 20 2 0 4 15 9 33 10 31 3 32 2 32 -38z m22 19 c-3 -8 -6 -5 -6 6 -1
11 2 17 5 13 3 -3 4 -12 1 -19z m53 12 c0 -5 -2 -10 -4 -10 -3 0 -8 5 -11 10
-3 6 -1 10 4 10 6 0 11 -4 11 -10z m-140 -141 c0 -5 -9 -9 -20 -9 -19 0 -26
11 -14 23 8 8 34 -3 34 -14z m-57 -435 c9 -10 -4 -34 -19 -34 -16 0 -16 2 -8
24 6 17 16 20 27 10z m603 -179 c15 -11 16 -14 3 -15 -8 0 -24 7 -35 15 -15
11 -16 14 -3 15 8 0 24 -7 35 -15z m-560 -111 c-3 -8 -15 -14 -27 -14 -20 0
-21 1 -5 23 9 12 20 31 24 42 6 17 7 16 10 -8 2 -16 1 -35 -2 -43z m39 26 c3
-5 -1 -10 -9 -10 -9 0 -16 5 -16 10 0 6 4 10 9 10 6 0 13 -4 16 -10z m-15
-274 c0 -3 -4 -8 -10 -11 -5 -3 -10 -1 -10 4 0 6 5 11 10 11 6 0 10 -2 10 -4z
m-833 -468 c-3 -8 -6 -5 -6 6 -1 11 2 17 5 13 3 -3 4 -12 1 -19z m112 -150
c10 -30 9 -31 -4 -14 -8 11 -15 26 -15 33 0 22 8 14 19 -19z m767 -20 c2 -26
1 -29 -6 -13 -10 24 -13 61 -3 52 3 -4 7 -22 9 -39z m24 -59 c0 -5 -4 -9 -10
-9 -5 0 -10 7 -10 16 0 8 5 12 10 9 6 -3 10 -10 10 -16z m-540 -105 c0 -9
-113 -112 -121 -110 -3 0 -13 -5 -21 -12 -13 -10 -18 -9 -28 3 -7 8 -17 12
-23 8 -5 -3 -7 -1 -4 4 4 6 -9 25 -29 43 -45 39 -37 53 8 15 30 -25 33 -26 37
-10 3 18 24 45 35 45 3 0 6 -9 6 -20 0 -11 7 -20 16 -20 11 0 14 6 9 20 -6 17
-2 20 29 20 20 0 36 5 36 10 0 6 11 10 25 10 14 0 25 -3 25 -6z m600 -36 c11
-23 18 -43 16 -45 -5 -5 -32 38 -40 65 -12 36 2 25 24 -20z m-83 -44 c-3 -3
-12 -4 -19 -1 -8 3 -5 6 6 6 11 1 17 -2 13 -5z m-22 -34 c3 -5 1 -10 -4 -10
-6 0 -11 5 -11 10 0 6 2 10 4 10 3 0 8 -4 11 -10z m-107 -120 c1 9 5 11 12 4
6 -6 6 -21 1 -42 -12 -40 10 -45 27 -7 6 14 17 25 23 25 6 0 8 7 5 16 -3 8 -2
13 3 9 5 -3 11 1 14 7 2 7 7 10 11 7 4 -4 -9 -34 -29 -67 -19 -33 -35 -66 -35
-73 0 -14 23 15 45 57 13 26 13 26 20 4 5 -15 13 -20 26 -17 10 3 22 1 25 -4
3 -5 1 -9 -5 -9 -21 0 -111 -86 -111 -107 0 -11 -5 -11 -20 -3 -12 7 -19 20
-18 38 1 15 -1 77 -4 137 -3 61 -2 88 2 60 4 -27 7 -43 8 -35z m132 -50 c0 -5
-4 -10 -10 -10 -5 0 -10 5 -10 10 0 6 5 10 10 10 6 0 10 -4 10 -10z m207 -26
c-3 -3 -12 -4 -19 -1 -8 3 -5 6 6 6 11 1 17 -2 13 -5z m-327 -149 c0 -8 -4
-15 -10 -15 -5 0 -10 7 -10 15 0 8 5 15 10 15 6 0 10 -7 10 -15z m84 -265 c7
0 21 7 32 15 10 8 25 15 33 15 21 0 -4 -25 -38 -40 -18 -7 -32 -22 -36 -37 -3
-14 -8 -23 -11 -21 -9 9 -15 158 -7 170 5 8 9 -11 11 -44 2 -38 7 -58 16 -58z
m229 37 c-3 -4 -7 -6 -10 -3 -3 2 -39 -11 -80 -30 -42 -19 -77 -34 -79 -34 -2
0 4 9 13 20 10 11 24 20 31 20 8 0 12 6 9 14 -7 17 9 22 75 22 26 0 44 -4 41
-9z m-893 -7 c0 -5 -13 -10 -30 -10 -16 0 -30 5 -30 10 0 6 14 10 30 10 17 0
30 -4 30 -10z m-67 -47 c-7 -2 -19 -2 -25 0 -7 3 -2 5 12 5 14 0 19 -2 13 -5z
m74 -9 c-3 -3 -12 -4 -19 -1 -8 3 -5 6 6 6 11 1 17 -2 13 -5z m693 -34 c0 -5
-2 -10 -4 -10 -2 0 -12 -3 -22 -7 -16 -6 -17 -5 -4 10 17 19 30 22 30 7z m46
-45 c-14 -14 -26 -23 -26 -19 0 11 43 55 48 50 2 -3 -8 -17 -22 -31z m24 -50
c0 -24 -5 -35 -15 -35 -15 0 -20 26 -9 54 11 28 24 17 24 -19z m-1217 -162
c-7 -2 -19 -2 -25 0 -7 3 -2 5 12 5 14 0 19 -2 13 -5z m1253 -342 c-3 -5 -15
-7 -26 -4 -28 7 -25 13 6 13 14 0 23 -4 20 -9z"/>
<path d="M4711 6274 c0 -11 3 -14 6 -6 3 7 2 16 -1 19 -3 4 -6 -2 -5 -13z"/>
<path d="M4560 4560 c0 -5 5 -10 10 -10 6 0 10 5 10 10 0 6 -4 10 -10 10 -5 0
-10 -4 -10 -10z"/>
<path d="M5531 2184 c0 -11 3 -14 6 -6 3 7 2 16 -1 19 -3 4 -6 -2 -5 -13z"/>
<path d="M5537 2135 c-4 -8 -2 -17 3 -20 6 -4 10 -4 10 -1 0 2 3 11 6 20 3 9
2 16 -4 16 -5 0 -12 -7 -15 -15z"/>
<path d="M4860 10161 c0 -6 5 -13 10 -16 6 -3 10 1 10 9 0 9 -4 16 -10 16 -5
0 -10 -4 -10 -9z"/>
<path d="M4070 6814 c0 -17 17 -36 24 -26 3 5 -1 15 -9 22 -8 7 -15 9 -15 4z"/>
<path d="M4077 6754 c3 -8 11 -14 19 -14 21 0 17 17 -5 23 -14 3 -18 1 -14 -9z"/>
<path d="M3940 6718 c0 -15 -5 -29 -10 -31 -6 -3 -5 -4 2 -3 21 4 34 34 20 48
-9 9 -12 7 -12 -14z"/>
<path d="M3910 6619 c0 -4 6 -10 13 -13 9 -3 8 -8 -4 -18 -15 -12 -15 -23 -2
-58 4 -8 7 -17 8 -20 14 -53 42 -73 32 -22 -4 21 0 33 19 51 13 13 24 28 24
34 0 6 -9 1 -21 -11 -28 -30 -42 -19 -34 28 6 35 5 39 -14 37 -12 -1 -21 -4
-21 -8z"/>
<path d="M4081 6464 c0 -11 3 -14 6 -6 3 7 2 16 -1 19 -3 4 -6 -2 -5 -13z"/>
<path d="M3970 6412 c6 -13 14 -21 18 -18 3 4 -2 14 -12 24 -18 16 -18 16 -6
-6z"/>
<path d="M6390 6422 c0 -4 7 -18 16 -30 8 -12 11 -22 5 -22 -5 0 -11 5 -13 11
-2 6 -12 7 -27 1 l-24 -8 29 -11 c32 -12 104 -15 104 -4 0 4 -9 13 -21 21 -11
8 -30 23 -41 33 -23 19 -28 21 -28 9z"/>
<path d="M6481 6394 c0 -11 3 -14 6 -6 3 7 2 16 -1 19 -3 4 -6 -2 -5 -13z"/>
<path d="M6308 6328 c-22 -22 -23 -39 -4 -32 12 4 30 45 23 49 -1 1 -10 -7
-19 -17z"/>
<path d="M6480 6329 c0 -5 5 -7 10 -4 6 3 10 8 10 11 0 2 -4 4 -10 4 -5 0 -10
-5 -10 -11z"/>
<path d="M6256 6305 c-3 -8 -1 -15 4 -15 6 0 10 7 10 15 0 8 -2 15 -4 15 -2 0
-6 -7 -10 -15z"/>
<path d="M6687 5990 c-4 -14 -6 -65 -4 -113 1 -69 -1 -90 -13 -97 -26 -17 -45
-7 -47 25 -1 17 0 24 3 17 9 -19 36 37 29 57 -6 14 -8 13 -21 -3 -13 -18 -14
-18 -14 -2 0 9 -4 15 -9 12 -4 -3 -6 5 -4 18 3 13 0 26 -5 30 -11 7 -19 -29
-28 -137 -4 -43 -11 -80 -15 -83 -5 -3 -9 0 -9 6 0 7 -6 10 -14 7 -8 -3 -26 0
-40 6 -31 14 -32 50 -1 55 35 7 41 22 8 22 -27 0 -30 3 -25 25 2 14 0 25 -6
25 -5 0 -12 -27 -16 -60 -9 -74 -49 -185 -67 -185 -10 0 -14 13 -14 43 0 34 5
46 23 58 12 8 22 20 22 27 0 8 -3 8 -9 -2 -6 -9 -10 -10 -12 -2 -6 18 -63 19
-64 1 -1 -8 2 -20 7 -26 11 -15 -20 -74 -38 -74 -19 0 -19 -57 0 -76 17 -17
27 -18 24 -3 -2 6 7 15 18 19 19 7 23 4 28 -21 7 -35 15 -36 66 -4 22 14 40
23 40 20 0 -14 84 42 110 73 34 41 37 52 14 52 -8 0 -12 5 -9 11 4 6 9 8 12 5
3 -3 15 4 27 15 l21 20 3 -23 c4 -26 22 -50 22 -29 0 7 6 11 14 8 19 -8 46 24
45 54 0 22 -1 23 -9 4 l-9 -20 0 20 c0 11 4 38 8 60 5 26 3 51 -5 70 -7 17
-17 50 -22 75 -8 40 -10 42 -15 20z m-149 -312 c-7 -13 -12 -26 -11 -29 1 -3
-11 -6 -27 -5 -39 1 -38 17 3 37 45 23 49 22 35 -3z"/>
<path d="M6457 5949 c-3 -12 0 -36 8 -53 l13 -31 1 53 c1 52 -12 70 -22 31z"/>
<path d="M6621 5904 c0 -11 3 -14 6 -6 3 7 2 16 -1 19 -3 4 -6 -2 -5 -13z"/>
<path d="M4401 4434 c0 -11 3 -14 6 -6 3 7 2 16 -1 19 -3 4 -6 -2 -5 -13z"/>
</g>
</svg>
